<svg xmlns="http://www.w3.org/2000/svg" xmlns:xlink="http://www.w3.org/1999/xlink" version="1.1" viewBox="0 0 2500 1000" style="background: #ffffff"><g transform="translate(25,100)"><rect width="450" height="300" rx="20" ry="20" x="0" y="0" fill="#f0f0f0" stroke-width="2" stroke="#d8d8d8" stroke-dasharray=""/><text x="225" y="95" text-anchor="middle" dominant-baseline="hanging" fill="#000000" font-size="30px" font-family="Tahoma, Verdana, Helvetica, Arial"><tspan x="225" dy="40px">abstract</tspan></text></g><g transform="translate(525,100)"><rect width="450" height="300" rx="20" ry="20" x="0" y="0" fill="#ffffff" stroke-width="2" stroke="#3c7fc0" stroke-dasharray=""/><text x="225" y="95" text-anchor="middle" dominant-baseline="hanging" fill="#3c7fc0" font-size="30px" font-family="Tahoma, Verdana, Helvetica, Arial"><tspan x="225" dy="40px">Boundary, domain</tspan></text></g><g transform="translate(1025,100)"><rect width="450" height="300" rx="20" ry="20" x="0" y="0" fill="#ffffff" stroke-width="2" stroke="#82b139" stroke-dasharray=""/><text x="225" y="95" text-anchor="middle" dominant-baseline="hanging" fill="#82b139" font-size="30px" font-family="Tahoma, Verdana, Helvetica, Arial"><tspan x="225" dy="40px">Boundary, node-js</tspan></text></g><g transform="translate(1525,100)"><rect width="450" height="300" rx="20" ry="20" x="0" y="0" fill="#e0e0e0" stroke-width="2" stroke="#cacaca" stroke-dasharray=""/><text x="225" y="95" text-anchor="middle" dominant-baseline="hanging" fill="#000000" font-size="30px" font-family="Tahoma, Verdana, Helvetica, Arial"><tspan x="225" dy="40px">types</tspan></text></g><g transform="translate(2025,100)"><rect width="450" height="300" rx="20" ry="20" x="0" y="0" fill="#3949ab" stroke-width="2" stroke="#000000" stroke-dasharray=""/><text x="225" y="95" text-anchor="middle" dominant-baseline="hanging" fill="#ffffff" font-size="30px" font-family="Tahoma, Verdana, Helvetica, Arial"><tspan x="225" dy="40px">value-object, currency</tspan></text></g><g transform="translate(25,670)"><path d="M422,0 L422,44 L450,30 L 422,16" style="fill:#444444" /><path d="M0,30 L422,30" style="stroke:#444444; stroke-width: 2; fill: none; stroke-dasharray: 8 8;" /><text x="225" y="55" text-anchor="middle" dominant-baseline="hanging" fill="#444444" font-size="30px" font-family="Tahoma, Verdana, Helvetica, Arial"><tspan x="225" dy="40px">Relationship</tspan></text></g></svg>