<svg xmlns="http://www.w3.org/2000/svg" xmlns:xlink="http://www.w3.org/1999/xlink" version="1.1" width="4020" height="2609" style="width: 4020px; height: 2609px; background: #ffffff" viewBox="0 0 4020 2609"><style id="v-3" type="text/css">        .joint-element .scalable * {            vector-effect: non-scaling-stroke;        }    </style><defs joint-selector="defs"><marker id="v-2711355553" orient="auto" overflow="visible" markerUnits="userSpaceOnUse"><path id="v-56" stroke="#ffbf00" fill="#ffbf00" transform="rotate(180)" d="M 20 -10 0 0 20 10 Z"></path></marker><marker id="v-21252848929" orient="auto" overflow="visible" markerUnits="userSpaceOnUse"><path id="v-67" stroke="#444444" fill="#444444" transform="rotate(180)" d="M 20 -10 0 0 20 10 Z"></path></marker></defs><g joint-selector="layers"  transform="matrix(1,0,0,1,0,0)"><g  style="pointer-events: none;"></g><g ></g><g  style="user-select: none;"><!--z-index:1--><!--z-index:2--><!--z-index:3--><!--z-index:4--><!--z-index:5--><!--z-index:6--><!--z-index:7--><!--z-index:8--><!--z-index:9--><!--z-index:10--><!--z-index:11--><!--z-index:12--><!--z-index:13--><!--z-index:14--><!--z-index:15--><!--z-index:16--><!--z-index:17--><!--z-index:18--><!--z-index:19--><!--z-index:20--><!--z-index:21--><g   id="j_36"  transform="translate(20,2565)"><g id="v-293"><text  id="v-294" font-size="24px" xml:space="preserve" y="0.8em" font-weight="normal" text-anchor="start" fill="#444444" pointer-events="none" display="block" font-family="Tahoma, Verdana, Helvetica, Arial"><tspan dy="0" >Tuesday, January 1, 2030 at 12:00 AM Coordinated Universal Time</tspan></text></g></g><!--z-index:22--><g   id="j_35"  transform="translate(20,2519)"><g id="v-291"><text  id="v-292" font-size="36px" xml:space="preserve" y="0.8em" font-weight="normal" text-anchor="start" fill="#444444" pointer-events="none" display="block" font-family="Tahoma, Verdana, Helvetica, Arial"><tspan dy="0" >Component View: Node.js Application - Domain Layer</tspan></text></g></g><!--z-index:23--><g   id="j_39"  transform="translate(200,160)" style="; opacity: 1;"><g id="v-310"><rect  id="v-311" width="3620" height="2209" rx="20" ry="20" stroke-width="2" pointer-events="none" stroke="#82b139" fill="#ffffff" opacity="1" stroke-dasharray=""></rect><text  id="v-312" font-size="33.599999999999994px" xml:space="preserve" y="2170" font-weight="bold" text-anchor="start" pointer-events="visible" font-family="Tahoma, Verdana, Helvetica, Arial" fill="#82b139" transform="matrix(1,0,0,1,15,0)"><tspan dy="0" >Node.js Application</tspan></text><text  id="v-313" font-size="16.799999999999997px" xml:space="preserve" y="2194" font-weight="normal" text-anchor="start" pointer-events="visible" font-family="Tahoma, Verdana, Helvetica, Arial" fill="#82b139" transform="matrix(1,0,0,1,15,0)"><tspan dy="0" >[Software System]</tspan></text><image  id="v-314" pointer-events="visible"></image></g></g><!--z-index:24--><g   id="j_38"  transform="translate(250,210)" style="; opacity: 1;"><g id="v-305"><rect  id="v-306" width="3520" height="2030" rx="20" ry="20" stroke-width="2" pointer-events="none" stroke="#3c7fc0" fill="#ffffff" opacity="1" stroke-dasharray=""></rect><text  id="v-307" font-size="33.599999999999994px" xml:space="preserve" y="1991" font-weight="bold" text-anchor="start" pointer-events="visible" font-family="Tahoma, Verdana, Helvetica, Arial" fill="#3c7fc0" transform="matrix(1,0,0,1,15,0)"><tspan dy="0" >Domain Layer</tspan></text><text  id="v-308" font-size="16.799999999999997px" xml:space="preserve" y="2015" font-weight="normal" text-anchor="start" pointer-events="visible" font-family="Tahoma, Verdana, Helvetica, Arial" fill="#3c7fc0" transform="matrix(1,0,0,1,15,0)"><tspan dy="0" >[Container]</tspan></text><image  id="v-309" pointer-events="visible"></image></g></g><!--z-index:25--><g   id="j_37"  transform="translate(3270,728)" style=""><g  id="v-298" style="opacity: 1;"><rect  id="v-299" rx="20" ry="20" stroke-width="2" pointer-events="visiblePainted" fill="#f0f0f0" stroke="#d8d8d8" stroke-dasharray="" width="450" height="300" style="fill: rgb(240, 240, 240); stroke: rgb(216, 216, 216);"></rect><text  id="v-300" font-size="33.599999999999994px" xml:space="preserve" y="72.5" font-weight="bold" text-anchor="middle" pointer-events="visible" font-family="Tahoma, Verdana, Helvetica, Arial" fill="#000000" dominant-baseline="hanging" transform="matrix(1,0,0,1,225,0)" style="fill: rgb(0, 0, 0);"><tspan dy="0" >Value Object</tspan></text><text  id="v-301" font-size="16.799999999999997px" xml:space="preserve" y="114.1" text-anchor="middle" font-family="Tahoma, Verdana, Helvetica, Arial" fill="#000000" dominant-baseline="hanging" transform="matrix(1,0,0,1,225,0)" style="display: block; fill: rgb(0, 0, 0);"><tspan dy="0" >[Component]</tspan></text><text  id="v-302" font-size="24px" xml:space="preserve" y="145.89999999999998" text-anchor="middle" font-family="Tahoma, Verdana, Helvetica, Arial" fill="#000000" dominant-baseline="hanging" transform="matrix(1,0,0,1,225,0)" style="display: block; fill: rgb(0, 0, 0);"><tspan dy="0" >Abstract base class: immutability,</tspan><tspan dy="1.2em" x="0" >and equality by declared</tspan><tspan dy="1.2em" x="0" >components rather than by identity.</tspan></text><g  id="v-303" color="#000000" transform="matrix(1,0,0,1,222.5,268)" display="none" style="fill: rgb(0, 0, 0);"><g ></g><g ></g><g ></g><g ></g></g><image  id="v-304"></image></g></g><!--z-index:26--><g   id="j_40"  transform="translate(2280,260)" style=""><g  id="v-318" style="opacity: 1;"><rect  id="v-319" rx="20" ry="20" stroke-width="2" pointer-events="visiblePainted" fill="#6d4c41" stroke="#000000" stroke-dasharray="" width="450" height="300" style="fill: rgb(109, 76, 65); stroke: rgb(0, 0, 0);"></rect><text  id="v-320" font-size="33.599999999999994px" xml:space="preserve" y="58.10000000000001" font-weight="bold" text-anchor="middle" pointer-events="visible" font-family="Tahoma, Verdana, Helvetica, Arial" fill="#ffffff" dominant-baseline="hanging" transform="matrix(1,0,0,1,225,0)" style="fill: rgb(255, 255, 255);"><tspan dy="0" >Email</tspan></text><text  id="v-321" font-size="16.799999999999997px" xml:space="preserve" y="99.7" text-anchor="middle" font-family="Tahoma, Verdana, Helvetica, Arial" fill="#ffffff" dominant-baseline="hanging" transform="matrix(1,0,0,1,225,0)" style="display: block; fill: rgb(255, 255, 255);"><tspan dy="0" >[Component]</tspan></text><text  id="v-322" font-size="24px" xml:space="preserve" y="131.5" text-anchor="middle" font-family="Tahoma, Verdana, Helvetica, Arial" fill="#ffffff" dominant-baseline="hanging" transform="matrix(1,0,0,1,225,0)" style="display: block; fill: rgb(255, 255, 255);"><tspan dy="0" >Email address, normalised to</tspan><tspan dy="1.2em" x="0" >lowercase and trimmed, so</tspan><tspan dy="1.2em" x="0" >addresses differing only in case are</tspan><tspan dy="1.2em" x="0" >one value.</tspan></text><g  id="v-323" color="#ffffff" transform="matrix(1,0,0,1,222.5,268)" display="none" style="fill: rgb(255, 255, 255);"><g ></g><g ></g><g ></g><g ></g></g><image  id="v-324"></image></g></g><!--z-index:27--><g   id="j_41"  transform="translate(1290,1284)" style=""><g  id="v-328" style="opacity: 1;"><rect  id="v-329" rx="20" ry="20" stroke-width="2" pointer-events="visiblePainted" fill="#4a2c8e" stroke="#000000" stroke-dasharray="" width="450" height="300" style="fill: rgb(74, 44, 142); stroke: rgb(0, 0, 0);"></rect><text  id="v-330" font-size="33.599999999999994px" xml:space="preserve" y="58.10000000000001" font-weight="bold" text-anchor="middle" pointer-events="visible" font-family="Tahoma, Verdana, Helvetica, Arial" fill="#ffffff" dominant-baseline="hanging" transform="matrix(1,0,0,1,225,0)" style="fill: rgb(255, 255, 255);"><tspan dy="0" >Money</tspan></text><text  id="v-331" font-size="16.799999999999997px" xml:space="preserve" y="99.7" text-anchor="middle" font-family="Tahoma, Verdana, Helvetica, Arial" fill="#ffffff" dominant-baseline="hanging" transform="matrix(1,0,0,1,225,0)" style="display: block; fill: rgb(255, 255, 255);"><tspan dy="0" >[Component]</tspan></text><text  id="v-332" font-size="24px" xml:space="preserve" y="131.5" text-anchor="middle" font-family="Tahoma, Verdana, Helvetica, Arial" fill="#ffffff" dominant-baseline="hanging" transform="matrix(1,0,0,1,225,0)" style="display: block; fill: rgb(255, 255, 255);"><tspan dy="0" >An Amount denominated in a</tspan><tspan dy="1.2em" x="0" >Currency, rounded half up to that</tspan><tspan dy="1.2em" x="0" >currency's decimal places at</tspan><tspan dy="1.2em" x="0" >construction.</tspan></text><g  id="v-333" color="#ffffff" transform="matrix(1,0,0,1,222.5,268)" display="none" style="fill: rgb(255, 255, 255);"><g ></g><g ></g><g ></g><g ></g></g><image  id="v-334"></image></g></g><!--z-index:28--><g   id="j_42"  transform="translate(2280,984)" style=""><g  id="v-338" style="opacity: 1;"><rect  id="v-339" rx="20" ry="20" stroke-width="2" pointer-events="visiblePainted" fill="#5e35b1" stroke="#000000" stroke-dasharray="" width="450" height="300" style="fill: rgb(94, 53, 177); stroke: rgb(0, 0, 0);"></rect><text  id="v-340" font-size="33.599999999999994px" xml:space="preserve" y="86.9" font-weight="bold" text-anchor="middle" pointer-events="visible" font-family="Tahoma, Verdana, Helvetica, Arial" fill="#ffffff" dominant-baseline="hanging" transform="matrix(1,0,0,1,225,0)" style="fill: rgb(255, 255, 255);"><tspan dy="0" >Amount</tspan></text><text  id="v-341" font-size="16.799999999999997px" xml:space="preserve" y="128.5" text-anchor="middle" font-family="Tahoma, Verdana, Helvetica, Arial" fill="#ffffff" dominant-baseline="hanging" transform="matrix(1,0,0,1,225,0)" style="display: block; fill: rgb(255, 255, 255);"><tspan dy="0" >[Component]</tspan></text><text  id="v-342" font-size="24px" xml:space="preserve" y="160.3" text-anchor="middle" font-family="Tahoma, Verdana, Helvetica, Arial" fill="#ffffff" dominant-baseline="hanging" transform="matrix(1,0,0,1,225,0)" style="display: block; fill: rgb(255, 255, 255);"><tspan dy="0" >An exact decimal quantity, with no</tspan><tspan dy="1.2em" x="0" >currency attached. May be negative.</tspan></text><g  id="v-343" color="#ffffff" transform="matrix(1,0,0,1,222.5,268)" display="none" style="fill: rgb(255, 255, 255);"><g ></g><g ></g><g ></g><g ></g></g><image  id="v-344"></image></g></g><!--z-index:29--><g   id="j_43"  transform="translate(2280,1584)" style=""><g  id="v-348" style="opacity: 1;"><rect  id="v-349" rx="20" ry="20" stroke-width="2" pointer-events="visiblePainted" fill="#3949ab" stroke="#000000" stroke-dasharray="" width="450" height="300" style="fill: rgb(57, 73, 171); stroke: rgb(0, 0, 0);"></rect><text  id="v-350" font-size="33.599999999999994px" xml:space="preserve" y="58.10000000000001" font-weight="bold" text-anchor="middle" pointer-events="visible" font-family="Tahoma, Verdana, Helvetica, Arial" fill="#ffffff" dominant-baseline="hanging" transform="matrix(1,0,0,1,225,0)" style="fill: rgb(255, 255, 255);"><tspan dy="0" >Currency</tspan></text><text  id="v-351" font-size="16.799999999999997px" xml:space="preserve" y="99.7" text-anchor="middle" font-family="Tahoma, Verdana, Helvetica, Arial" fill="#ffffff" dominant-baseline="hanging" transform="matrix(1,0,0,1,225,0)" style="display: block; fill: rgb(255, 255, 255);"><tspan dy="0" >[Component]</tspan></text><text  id="v-352" font-size="24px" xml:space="preserve" y="131.5" text-anchor="middle" font-family="Tahoma, Verdana, Helvetica, Arial" fill="#ffffff" dominant-baseline="hanging" transform="matrix(1,0,0,1,225,0)" style="display: block; fill: rgb(255, 255, 255);"><tspan dy="0" >A supported denomination from a</tspan><tspan dy="1.2em" x="0" >closed set, carrying the ISO code</tspan><tspan dy="1.2em" x="0" >and the decimal places its amounts</tspan><tspan dy="1.2em" x="0" >are expressed in.</tspan></text><g  id="v-353" color="#ffffff" transform="matrix(1,0,0,1,222.5,268)" display="none" style="fill: rgb(255, 255, 255);"><g ></g><g ></g><g ></g><g ></g></g><image  id="v-354"></image></g></g><!--z-index:30--><g   id="j_44"  transform="translate(300,1084)" style=""><g  id="v-358" style="opacity: 1;"><rect  id="v-359" rx="20" ry="20" stroke-width="2" pointer-events="visiblePainted" fill="#7e57c2" stroke="#000000" stroke-dasharray="" width="450" height="300" style="fill: rgb(126, 87, 194); stroke: rgb(0, 0, 0);"></rect><text  id="v-360" font-size="33.599999999999994px" xml:space="preserve" y="86.9" font-weight="bold" text-anchor="middle" pointer-events="visible" font-family="Tahoma, Verdana, Helvetica, Arial" fill="#ffffff" dominant-baseline="hanging" transform="matrix(1,0,0,1,225,0)" style="fill: rgb(255, 255, 255);"><tspan dy="0" >Price</tspan></text><text  id="v-361" font-size="16.799999999999997px" xml:space="preserve" y="128.5" text-anchor="middle" font-family="Tahoma, Verdana, Helvetica, Arial" fill="#ffffff" dominant-baseline="hanging" transform="matrix(1,0,0,1,225,0)" style="display: block; fill: rgb(255, 255, 255);"><tspan dy="0" >[Component]</tspan></text><text  id="v-362" font-size="24px" xml:space="preserve" y="160.3" text-anchor="middle" font-family="Tahoma, Verdana, Helvetica, Arial" fill="#ffffff" dominant-baseline="hanging" transform="matrix(1,0,0,1,225,0)" style="display: block; fill: rgb(255, 255, 255);"><tspan dy="0" >Money constrained to non-negative:</tspan><tspan dy="1.2em" x="0" >what something costs.</tspan></text><g  id="v-363" color="#ffffff" transform="matrix(1,0,0,1,222.5,268)" display="none" style="fill: rgb(255, 255, 255);"><g ></g><g ></g><g ></g><g ></g></g><image  id="v-364"></image></g></g><!--z-index:31--><g   id="j_45"  transform="translate(3270,1811)" style=""><g  id="v-368" style="opacity: 1;"><rect  id="v-369" rx="20" ry="20" stroke-width="2" pointer-events="visiblePainted" fill="#e0e0e0" stroke="#cacaca" stroke-dasharray="" width="450" height="300" style="fill: rgb(224, 224, 224); stroke: rgb(202, 202, 202);"></rect><text  id="v-370" font-size="33.599999999999994px" xml:space="preserve" y="72.5" font-weight="bold" text-anchor="middle" pointer-events="visible" font-family="Tahoma, Verdana, Helvetica, Arial" fill="#000000" dominant-baseline="hanging" transform="matrix(1,0,0,1,225,0)" style="fill: rgb(0, 0, 0);"><tspan dy="0" >Currency Codes</tspan></text><text  id="v-371" font-size="16.799999999999997px" xml:space="preserve" y="114.1" text-anchor="middle" font-family="Tahoma, Verdana, Helvetica, Arial" fill="#000000" dominant-baseline="hanging" transform="matrix(1,0,0,1,225,0)" style="display: block; fill: rgb(0, 0, 0);"><tspan dy="0" >[Component]</tspan></text><text  id="v-372" font-size="24px" xml:space="preserve" y="145.89999999999998" text-anchor="middle" font-family="Tahoma, Verdana, Helvetica, Arial" fill="#000000" dominant-baseline="hanging" transform="matrix(1,0,0,1,225,0)" style="display: block; fill: rgb(0, 0, 0);"><tspan dy="0" >The closed set of supported ISO</tspan><tspan dy="1.2em" x="0" >codes and the decimal places each</tspan><tspan dy="1.2em" x="0" >one is expressed in.</tspan></text><g  id="v-373" color="#000000" transform="matrix(1,0,0,1,222.5,268)" display="none" style="fill: rgb(0, 0, 0);"><g ></g><g ></g><g ></g><g ></g></g><image  id="v-374"></image></g></g><!--z-index:32--><g   id="j_46"  style="opacity: 1;"><path fill="none" cursor="pointer" stroke="transparent" stroke-linecap="round" joint-selector="wrapper" id="v-386" stroke-width="10" stroke-linejoin="round" d="M 2730 410 L 2990 410 C 2996.6666666666665 410 3002.333333333333 412.3333333333333 3007 417 L 3336.35 728"></path><path fill="none" pointer-events="none" joint-selector="line" id="v-385" stroke="#444444" stroke-width="2" stroke-linejoin="round" stroke-dasharray="8 8" d="M 2730 410 L 2990 410 C 2996.6666666666665 410 3002.333333333333 412.3333333333333 3007 417 L 3336.35 728" marker-end="url(#v-21252848929)"></path><g id="v-378" ><g id="v-379"  label-idx="0" cursor="move" transform="matrix(1,0,0,1,2999.31640625,411.7774658203125)" style="cursor: default;"><rect joint-selector="rect" id="v-382" fill="#ffffff" rx="3" ry="3" x="-65.90711212158203" y="-15.022221565246582" width="131.81422424316406" height="27.77777671813965" pointer-events="none"  style="display: block;"></rect><text joint-selector="text" id="v-381" font-size="24px" xml:space="preserve" fill="#444444" text-anchor="middle" pointer-events="none" font-family="Tahoma, Verdana, Helvetica, Arial" font-weight="normal"  style="display: block;"><tspan dy="0.3em" >inherits from</tspan></text></g><g id="v-380"  label-idx="1" cursor="move" transform="matrix(1,0,0,1,2989.31640625,423.7774658203125)" style="cursor: default;"><rect joint-selector="rect" id="v-384" fill="#ffffff" rx="3" ry="3" x="-4.547473508864641e-13" y="0" width="0" height="0"  display="none"></rect><text joint-selector="text" id="v-383" fill="#000000" font-size="14" text-anchor="middle" text-vertical-anchor="middle" pointer-events="none"></text></g></g></g><!--z-index:33--><g   id="j_47"  style="opacity: 1;"><path fill="none" cursor="pointer" stroke="transparent" stroke-linecap="round" joint-selector="wrapper" id="v-398" stroke-width="10" stroke-linejoin="round" d="M 1631.56 1284 L 2004 805 C 2008 799.6666666666665 2013.3333333333333 796.9999999999999 2020 797 L 2990 797 C 2996.6666666666665 796.9999999999999 3003.333333333333 797.6666666666665 3010 799 L 3270 841.18"></path><path fill="none" pointer-events="none" joint-selector="line" id="v-397" stroke="#444444" stroke-width="2" stroke-linejoin="round" stroke-dasharray="8 8" d="M 1631.56 1284 L 2004 805 C 2008 799.6666666666665 2013.3333333333333 796.9999999999999 2020 797 L 2990 797 C 2996.6666666666665 796.9999999999999 3003.333333333333 797.6666666666665 3010 799 L 3270 841.18" marker-end="url(#v-21252848929)"></path><g id="v-390" ><g id="v-391"  label-idx="0" cursor="move" transform="matrix(1,0,0,1,2505.522216796875,797)" style="cursor: default;"><rect joint-selector="rect" id="v-394" fill="#ffffff" rx="3" ry="3" x="-65.90711212158203" y="-15.022221565246582" width="131.81422424316406" height="27.77777671813965" pointer-events="none"  style="display: block;"></rect><text joint-selector="text" id="v-393" font-size="24px" xml:space="preserve" fill="#444444" text-anchor="middle" pointer-events="none" font-family="Tahoma, Verdana, Helvetica, Arial" font-weight="normal"  style="display: block;"><tspan dy="0.3em" >inherits from</tspan></text></g><g id="v-392"  label-idx="1" cursor="move" transform="matrix(1,0,0,1,2495.522216796875,809)" style="cursor: default;"><rect joint-selector="rect" id="v-396" fill="#ffffff" rx="3" ry="3" x="0" y="0" width="0" height="0"  display="none"></rect><text joint-selector="text" id="v-395" fill="#000000" font-size="14" text-anchor="middle" text-vertical-anchor="middle" pointer-events="none"></text></g></g></g><!--z-index:34--><g   id="j_48"  style="opacity: 1;"><path fill="none" cursor="pointer" stroke="transparent" stroke-linecap="round" joint-selector="wrapper" id="v-410" stroke-width="10" stroke-linejoin="round" d="M 2730 1614.45 L 2991 1476 C 2997 1472.6666666666665 3002 1468.3333333333333 3006 1463 L 3369.79 1028"></path><path fill="none" pointer-events="none" joint-selector="line" id="v-409" stroke="#444444" stroke-width="2" stroke-linejoin="round" stroke-dasharray="8 8" d="M 2730 1614.45 L 2991 1476 C 2997 1472.6666666666665 3002 1468.3333333333333 3006 1463 L 3369.79 1028" marker-end="url(#v-21252848929)"></path><g id="v-402" ><g id="v-403"  label-idx="0" cursor="move" transform="matrix(1,0,0,1,2999.396240234375,1470.122802734375)" style="cursor: default;"><rect joint-selector="rect" id="v-406" fill="#ffffff" rx="3" ry="3" x="-65.90711212158203" y="-15.022221565246582" width="131.81422424316406" height="27.77777671813965" pointer-events="none"  style="display: block;"></rect><text joint-selector="text" id="v-405" font-size="24px" xml:space="preserve" fill="#444444" text-anchor="middle" pointer-events="none" font-family="Tahoma, Verdana, Helvetica, Arial" font-weight="normal"  style="display: block;"><tspan dy="0.3em" >inherits from</tspan></text></g><g id="v-404"  label-idx="1" cursor="move" transform="matrix(1,0,0,1,2989.396240234375,1482.122802734375)" style="cursor: default;"><rect joint-selector="rect" id="v-408" fill="#ffffff" rx="3" ry="3" x="-4.547473508864641e-13" y="0" width="0" height="0"  display="none"></rect><text joint-selector="text" id="v-407" fill="#000000" font-size="14" text-anchor="middle" text-vertical-anchor="middle" pointer-events="none"></text></g></g></g><!--z-index:35--><g   id="j_49"  style="opacity: 1;"><path fill="none" cursor="pointer" stroke="transparent" stroke-linecap="round" joint-selector="wrapper" id="v-422" stroke-width="10" stroke-linejoin="round" d="M 2730 1134 L 2990 1134 C 2996.6666666666665 1134 3003 1132.3333333333333 3009 1129 L 3270 994.36"></path><path fill="none" pointer-events="none" joint-selector="line" id="v-421" stroke="#444444" stroke-width="2" stroke-linejoin="round" stroke-dasharray="8 8" d="M 2730 1134 L 2990 1134 C 2996.6666666666665 1134 3003 1132.3333333333333 3009 1129 L 3270 994.36" marker-end="url(#v-21252848929)"></path><g id="v-414" ><g id="v-415"  label-idx="0" cursor="move" transform="matrix(1,0,0,1,2999.712890625,1132.759765625)" style="cursor: default;"><rect joint-selector="rect" id="v-418" fill="#ffffff" rx="3" ry="3" x="-65.90711212158203" y="-15.022221565246582" width="131.81422424316406" height="27.77777671813965" pointer-events="none"  style="display: block;"></rect><text joint-selector="text" id="v-417" font-size="24px" xml:space="preserve" fill="#444444" text-anchor="middle" pointer-events="none" font-family="Tahoma, Verdana, Helvetica, Arial" font-weight="normal"  style="display: block;"><tspan dy="0.3em" >inherits from</tspan></text></g><g id="v-416"  label-idx="1" cursor="move" transform="matrix(1,0,0,1,2989.712890625,1144.759765625)" style="cursor: default;"><rect joint-selector="rect" id="v-420" fill="#ffffff" rx="3" ry="3" x="0" y="0" width="0" height="0"  display="none"></rect><text joint-selector="text" id="v-419" fill="#000000" font-size="14" text-anchor="middle" text-vertical-anchor="middle" pointer-events="none"></text></g></g></g><!--z-index:36--><g   id="j_50"  style="opacity: 1;"><path fill="none" cursor="pointer" stroke="transparent" stroke-linecap="round" joint-selector="wrapper" id="v-434" stroke-width="10" stroke-linejoin="round" d="M 673.8 1084 L 1013 742 C 1017.6666666666666 737.3333333333333 1023.3333333333333 735 1030 735 L 2990 735 C 2996.6666666666665 735 3003.333333333333 736 3010 738 L 3270 813"></path><path fill="none" pointer-events="none" joint-selector="line" id="v-433" stroke="#444444" stroke-width="2" stroke-linejoin="round" stroke-dasharray="8 8" d="M 673.8 1084 L 1013 742 C 1017.6666666666666 737.3333333333333 1023.3333333333333 735 1030 735 L 2990 735 C 2996.6666666666665 735 3003.333333333333 736 3010 738 L 3270 813" marker-end="url(#v-21252848929)"></path><g id="v-426" ><g id="v-427"  label-idx="0" cursor="move" transform="matrix(1,0,0,1,2010.5804443359375,735)" style="cursor: default;"><rect joint-selector="rect" id="v-430" fill="#ffffff" rx="3" ry="3" x="-65.90711212158203" y="-15.022221565246582" width="131.81422424316406" height="27.77777671813965" pointer-events="none"  style="display: block;"></rect><text joint-selector="text" id="v-429" font-size="24px" xml:space="preserve" fill="#444444" text-anchor="middle" pointer-events="none" font-family="Tahoma, Verdana, Helvetica, Arial" font-weight="normal"  style="display: block;"><tspan dy="0.3em" >inherits from</tspan></text></g><g id="v-428"  label-idx="1" cursor="move" transform="matrix(1,0,0,1,2000.5804443359375,747)" style="cursor: default;"><rect joint-selector="rect" id="v-432" fill="#ffffff" rx="3" ry="3" x="-4.547473508864641e-13" y="0" width="0" height="0"  display="none"></rect><text joint-selector="text" id="v-431" fill="#000000" font-size="14" text-anchor="middle" text-vertical-anchor="middle" pointer-events="none"></text></g></g></g><!--z-index:37--><g   id="j_51"  style="opacity: 1;"><path fill="none" cursor="pointer" stroke="transparent" stroke-linecap="round" joint-selector="wrapper" id="v-446" stroke-width="10" stroke-linejoin="round" d="M 1740 1297.64 L 2001 1139 C 2007 1135.6666666666665 2013.3333333333333 1134 2020 1134 L 2280 1134"></path><path fill="none" pointer-events="none" joint-selector="line" id="v-445" stroke="#444444" stroke-width="2" stroke-linejoin="round" stroke-dasharray="8 8" d="M 1740 1297.64 L 2001 1139 C 2007 1135.6666666666665 2013.3333333333333 1134 2020 1134 L 2280 1134" marker-end="url(#v-21252848929)"></path><g id="v-438" ><g id="v-439"  label-idx="0" cursor="move" transform="matrix(1,0,0,1,2010.287109375,1135.240234375)" style="cursor: default;"><rect joint-selector="rect" id="v-442" fill="#ffffff" rx="3" ry="3" x="-86.58853912353516" y="-15.022221565246582" width="173.1770782470703" height="27.77777671813965" pointer-events="none"  style="display: block;"></rect><text joint-selector="text" id="v-441" font-size="24px" xml:space="preserve" fill="#444444" text-anchor="middle" pointer-events="none" font-family="Tahoma, Verdana, Helvetica, Arial" font-weight="normal"  style="display: block;"><tspan dy="0.3em" >builds and holds</tspan></text></g><g id="v-440"  label-idx="1" cursor="move" transform="matrix(1,0,0,1,2000.287109375,1147.240234375)" style="cursor: default;"><rect joint-selector="rect" id="v-444" fill="#ffffff" rx="3" ry="3" x="0" y="0" width="0" height="0"  display="none"></rect><text joint-selector="text" id="v-443" fill="#000000" font-size="14" text-anchor="middle" text-vertical-anchor="middle" pointer-events="none"></text></g></g></g><!--z-index:38--><g   id="j_52"  style="opacity: 1;"><path fill="none" cursor="pointer" stroke="transparent" stroke-linecap="round" joint-selector="wrapper" id="v-458" stroke-width="10" stroke-linejoin="round" d="M 1740 1570.36 L 2001 1729 C 2007 1732.3333333333333 2013.3333333333333 1734 2020 1734 L 2280 1734"></path><path fill="none" pointer-events="none" joint-selector="line" id="v-457" stroke="#444444" stroke-width="2" stroke-linejoin="round" stroke-dasharray="8 8" d="M 1740 1570.36 L 2001 1729 C 2007 1732.3333333333333 2013.3333333333333 1734 2020 1734 L 2280 1734" marker-end="url(#v-21252848929)"></path><g id="v-450" ><g id="v-451"  label-idx="0" cursor="move" transform="matrix(1,0,0,1,2010.287109375,1732.759765625)" style="cursor: default;"><rect joint-selector="rect" id="v-454" fill="#ffffff" rx="3" ry="3" x="-87.26128387451172" y="-29.42222023010254" width="174.52256774902344" height="56.57777786254883" pointer-events="none"  style="display: block;"></rect><text joint-selector="text" id="v-453" font-size="24px" xml:space="preserve" fill="#444444" text-anchor="middle" pointer-events="none" font-family="Tahoma, Verdana, Helvetica, Arial" font-weight="normal"  style="display: block;"><tspan dy="-0.3em" >holds, and takes</tspan><tspan dy="1.2em" x="0" >its scale from</tspan></text></g><g id="v-452"  label-idx="1" cursor="move" transform="matrix(1,0,0,1,2000.287109375,1759.1597900390625)" style="cursor: default;"><rect joint-selector="rect" id="v-456" fill="#ffffff" rx="3" ry="3" x="0" y="0" width="0" height="0"  display="none"></rect><text joint-selector="text" id="v-455" fill="#000000" font-size="14" text-anchor="middle" text-vertical-anchor="middle" pointer-events="none"></text></g></g></g><!--z-index:39--><g   id="j_53"  style="opacity: 1;"><path fill="none" cursor="pointer" stroke="transparent" stroke-linecap="round" joint-selector="wrapper" id="v-470" stroke-width="10" stroke-linejoin="round" d="M 750 1324.91 L 1011 1430 C 1017 1432.6666666666665 1023.3333333333333 1434 1030 1434 L 1290 1434"></path><path fill="none" pointer-events="none" joint-selector="line" id="v-469" stroke="#444444" stroke-width="2" stroke-linejoin="round" stroke-dasharray="8 8" d="M 750 1324.91 L 1011 1430 C 1017 1432.6666666666665 1023.3333333333333 1434 1030 1434 L 1290 1434" marker-end="url(#v-21252848929)"></path><g id="v-462" ><g id="v-463"  label-idx="0" cursor="move" transform="matrix(1,0,0,1,1020.17578125,1432.984375)" style="cursor: default;"><rect joint-selector="rect" id="v-466" fill="#ffffff" rx="3" ry="3" x="-78.60242462158203" y="-29.42222023010254" width="157.7324676513672" height="56.57777786254883" pointer-events="none"  style="display: block;"></rect><text joint-selector="text" id="v-465" font-size="24px" xml:space="preserve" fill="#444444" text-anchor="middle" pointer-events="none" font-family="Tahoma, Verdana, Helvetica, Arial" font-weight="normal"  style="display: block;"><tspan dy="-0.3em" >refines, adding</tspan><tspan dy="1.2em" x="0" >non-negativity</tspan></text></g><g id="v-464"  label-idx="1" cursor="move" transform="matrix(1,0,0,1,1010.17578125,1459.38427734375)" style="cursor: default;"><rect joint-selector="rect" id="v-468" fill="#ffffff" rx="3" ry="3" x="2.2737367544323206e-13" y="0" width="0" height="0"  display="none"></rect><text joint-selector="text" id="v-467" fill="#000000" font-size="14" text-anchor="middle" text-vertical-anchor="middle" pointer-events="none"></text></g></g></g><!--z-index:40--><g   id="j_54"  style="opacity: 1;"><path fill="none" cursor="pointer" stroke="transparent" stroke-linecap="round" joint-selector="wrapper" id="v-482" stroke-width="10" stroke-linejoin="round" d="M 2730 1757.36 L 2990 1784 C 2996.6666666666665 1784.9333333333334 3003 1786.6000000000001 3009 1789 L 3270 1881.18"></path><path fill="none" pointer-events="none" joint-selector="line" id="v-481" stroke="#444444" stroke-width="2" stroke-linejoin="round" stroke-dasharray="8 8" d="M 2730 1757.36 L 2990 1784 C 2996.6666666666665 1784.9333333333334 3003 1786.6000000000001 3009 1789 L 3270 1881.18" marker-end="url(#v-21252848929)"></path><g id="v-474" ><g id="v-475"  label-idx="0" cursor="move" transform="matrix(1,0,0,1,2999.82421875,1785.9696044921875)" style="cursor: default;"><rect joint-selector="rect" id="v-478" fill="#ffffff" rx="3" ry="3" x="-95.92013549804688" y="-43.82221984863281" width="192.37144470214844" height="85.37777709960938" pointer-events="none"  style="display: block;"></rect><text joint-selector="text" id="v-477" font-size="24px" xml:space="preserve" fill="#444444" text-anchor="middle" pointer-events="none" font-family="Tahoma, Verdana, Helvetica, Arial" font-weight="normal"  style="display: block;"><tspan dy="-0.8999999999999999em" >reads the</tspan><tspan dy="1.2em" x="0" >supported set and</tspan><tspan dy="1.2em" x="0" >its scales</tspan></text></g><g id="v-476"  label-idx="1" cursor="move" transform="matrix(1,0,0,1,2989.82421875,1826.76953125)" style="cursor: default;"><rect joint-selector="rect" id="v-480" fill="#ffffff" rx="3" ry="3" x="0" y="0" width="0" height="0"  display="none"></rect><text joint-selector="text" id="v-479" fill="#000000" font-size="14" text-anchor="middle" text-vertical-anchor="middle" pointer-events="none"></text></g></g></g><!--z-index:41--><g   id="j_55"  style="opacity: 1;"><path fill="none" cursor="pointer" stroke="transparent" stroke-linecap="round" joint-selector="wrapper" id="v-494" stroke-width="10" stroke-linejoin="round" d="M 1628.99 1584 L 2004 2077 C 2008 2082.6000000000004 2013.3333333333333 2085.266666666667 2020 2085 L 2990 2085 C 2996.6666666666665 2085.266666666667 3003.333333333333 2084.6000000000004 3010 2083 L 3270 2017.55"></path><path fill="none" pointer-events="none" joint-selector="line" id="v-493" stroke="#444444" stroke-width="2" stroke-linejoin="round" stroke-dasharray="8 8" d="M 1628.99 1584 L 2004 2077 C 2008 2082.6000000000004 2013.3333333333333 2085.266666666667 2020 2085 L 2990 2085 C 2996.6666666666665 2085.266666666667 3003.333333333333 2084.6000000000004 3010 2083 L 3270 2017.55" marker-end="url(#v-21252848929)"></path><g id="v-486" ><g id="v-487"  label-idx="0" cursor="move" transform="matrix(1,0,0,1,2505.586181640625,2085)" style="cursor: default;"><rect joint-selector="rect" id="v-490" fill="#ffffff" rx="3" ry="3" x="-85.89409637451172" y="-29.42222023010254" width="171.78819274902344" height="56.57777786254883" pointer-events="none"  style="display: block;"></rect><text joint-selector="text" id="v-489" font-size="24px" xml:space="preserve" fill="#444444" text-anchor="middle" pointer-events="none" font-family="Tahoma, Verdana, Helvetica, Arial" font-weight="normal"  style="display: block;"><tspan dy="-0.3em" >names the code</tspan><tspan dy="1.2em" x="0" >on the wire form</tspan></text></g><g id="v-488"  label-idx="1" cursor="move" transform="matrix(1,0,0,1,2495.586181640625,2111.39990234375)" style="cursor: default;"><rect joint-selector="rect" id="v-492" fill="#ffffff" rx="3" ry="3" x="0" y="0" width="0" height="0"  display="none"></rect><text joint-selector="text" id="v-491" fill="#000000" font-size="14" text-anchor="middle" text-vertical-anchor="middle" pointer-events="none"></text></g></g></g><!--z-index:42--></g><g  style="user-select: none;"></g><g ></g><g  display="none"></g></g></svg>